<svg width="66" height="54" viewBox="0 0 66 54" fill="none" xmlns="http://www.w3.org/2000/svg">
<path d="M62.2188 0.527588H3.78125C2.79531 0.528678 1.85007 0.920824 1.1529 1.61799C0.455736 2.31515 0.0635898 3.2604 0.0625 4.24634V41.4338C0.0635898 42.4198 0.455736 43.365 1.1529 44.0622C1.85007 44.7593 2.79531 45.1515 3.78125 45.1526H25.0552L23.7802 48.3401H18.125C17.8432 48.3401 17.573 48.452 17.3737 48.6513C17.1744 48.8505 17.0625 49.1208 17.0625 49.4026V51.5276H10.6875C10.4057 51.5276 10.1355 51.6395 9.9362 51.8388C9.73694 52.038 9.625 52.3083 9.625 52.5901C9.625 52.8719 9.73694 53.1421 9.9362 53.3414C10.1355 53.5406 10.4057 53.6526 10.6875 53.6526H55.3125C55.5943 53.6526 55.8645 53.5406 56.0638 53.3414C56.2631 53.1421 56.375 52.8719 56.375 52.5901C56.375 52.3083 56.2631 52.038 56.0638 51.8388C55.8645 51.6395 55.5943 51.5276 55.3125 51.5276H48.9375V49.4026C48.9375 49.1208 48.8256 48.8505 48.6263 48.6513C48.427 48.452 48.1568 48.3401 47.875 48.3401H42.2198L40.9448 45.1526H62.2188C63.2047 45.1515 64.1499 44.7593 64.8471 44.0622C65.5443 43.365 65.9364 42.4198 65.9375 41.4338V4.24634C65.9364 3.2604 65.5443 2.31515 64.8471 1.61799C64.1499 0.920824 63.2047 0.528678 62.2188 0.527588ZM46.8125 50.4651V51.5276H19.1875V50.4651H46.8125ZM26.0698 48.3401L27.3448 45.1526H38.6552L39.9302 48.3401H26.0698ZM63.8125 41.4338C63.8121 41.8564 63.6441 42.2616 63.3453 42.5604C63.0465 42.8592 62.6413 43.0272 62.2188 43.0276H3.78125C3.35867 43.0272 2.9535 42.8592 2.65469 42.5604C2.35588 42.2616 2.18785 41.8564 2.1875 41.4338V38.7776H63.8125V41.4338ZM63.8125 36.6526H2.1875V4.24634C2.18785 3.82376 2.35588 3.41859 2.65469 3.11978C2.9535 2.82097 3.35867 2.65294 3.78125 2.65259H62.2188C62.6413 2.65294 63.0465 2.82097 63.3453 3.11978C63.6441 3.41859 63.8121 3.82376 63.8125 4.24634V36.6526Z" fill="#FFB400"/>
<path d="M28.1669 27.9784C28.2836 28.0549 28.4142 28.1078 28.5513 28.1338C28.6884 28.1599 28.8292 28.1587 28.9659 28.1304C29.1025 28.102 29.2322 28.047 29.3475 27.9685C29.4629 27.89 29.5617 27.7896 29.6382 27.6729L38.0054 14.9229C38.1601 14.6873 38.2148 14.4 38.1575 14.124C38.1003 13.8481 37.9358 13.6062 37.7002 13.4516C37.4646 13.297 37.1773 13.2423 36.9014 13.2995C36.6254 13.3567 36.3836 13.5212 36.2289 13.7568L27.8617 26.5068C27.7851 26.6235 27.7322 26.7541 27.7061 26.8912C27.68 27.0283 27.6811 27.1692 27.7095 27.3058C27.7378 27.4425 27.7928 27.5722 27.8713 27.6876C27.9498 27.803 28.0503 27.9018 28.1669 27.9784Z" fill="#FFB400"/>
<path d="M39.7573 27.9063C39.9738 28.0867 40.2531 28.1737 40.5337 28.1482C40.8143 28.1226 41.0733 27.9867 41.2537 27.7702L46.5662 21.3952C46.7253 21.2043 46.8124 20.9636 46.8124 20.7151C46.8124 20.4665 46.7253 20.2259 46.5662 20.0349L41.2537 13.6599C41.1647 13.5518 41.0552 13.4624 40.9315 13.3968C40.8077 13.3312 40.6723 13.2907 40.5329 13.2776C40.3934 13.2645 40.2528 13.2791 40.119 13.3206C39.9853 13.362 39.861 13.4295 39.7535 13.5192C39.6459 13.6088 39.5571 13.7188 39.4922 13.8429C39.4272 13.967 39.3875 14.1027 39.3752 14.2422C39.3629 14.3817 39.3783 14.5222 39.4205 14.6557C39.4627 14.7893 39.5309 14.9131 39.6212 15.0202L44.3668 20.7151L39.6212 26.4099C39.4408 26.6264 39.3538 26.9057 39.3793 27.1863C39.4049 27.467 39.5408 27.7259 39.7573 27.9063Z" fill="#FFB400"/>
<path d="M24.7462 27.7702C24.8352 27.8783 24.9448 27.9677 25.0685 28.0333C25.1922 28.0989 25.3276 28.1394 25.4671 28.1525C25.6065 28.1656 25.7471 28.151 25.8809 28.1095C26.0146 28.0681 26.1389 28.0006 26.2465 27.911C26.354 27.8213 26.4428 27.7113 26.5078 27.5872C26.5727 27.4631 26.6124 27.3274 26.6247 27.1879C26.637 27.0485 26.6216 26.9079 26.5794 26.7744C26.5372 26.6409 26.469 26.517 26.3787 26.4099L21.6331 20.7151L26.3787 15.0202C26.469 14.9131 26.5372 14.7893 26.5794 14.6557C26.6216 14.5222 26.637 14.3817 26.6247 14.2422C26.6124 14.1027 26.5727 13.967 26.5078 13.8429C26.4428 13.7188 26.354 13.6088 26.2465 13.5192C26.1389 13.4295 26.0146 13.362 25.8809 13.3206C25.7471 13.2791 25.6065 13.2645 25.4671 13.2776C25.3276 13.2907 25.1922 13.3312 25.0685 13.3968C24.9448 13.4624 24.8352 13.5518 24.7462 13.6599L19.4337 20.0349C19.2746 20.2259 19.1875 20.4665 19.1875 20.7151C19.1875 20.9636 19.2746 21.2043 19.4337 21.3952L24.7462 27.7702Z" fill="#FFB400"/>
</svg>
