<svg width="74" height="75" viewBox="0 0 74 75" fill="none" xmlns="http://www.w3.org/2000/svg">
<g clip-path="url(#clip0_2_468)">
<path d="M37 0.0900879C29.0176 0.0900879 22.5217 6.84339 22.5217 15.1427V37.0901C22.5217 45.391 29.0176 52.1427 37 52.1427C44.9823 52.1427 51.4782 45.391 51.4782 37.0901V15.1427C51.4782 6.84339 44.9823 0.0900879 37 0.0900879ZM37 48.9253C31.3116 48.9253 26.6062 44.4643 25.8549 38.6988H48.1434C47.3938 44.466 42.6883 48.9253 37 48.9253ZM48.2609 35.4814H25.7391V15.1427C25.7391 8.61617 30.7904 3.30748 37 3.30748C43.2095 3.30748 48.2609 8.61617 48.2609 15.1427V35.4814Z" fill="#FFB400"/>
<path d="M59.5217 29.0466C58.6337 29.0466 57.913 29.7673 57.913 30.6553V37.0901C57.913 48.6212 48.5311 58.0032 37 58.0032C25.4689 58.0032 16.087 48.6212 16.087 37.0901V30.6553C16.087 29.7673 15.3663 29.0466 14.4783 29.0466C13.5903 29.0466 12.8696 29.7673 12.8696 30.6553V37.0901C12.8696 49.8519 22.8354 60.3052 35.3913 61.1385V70.8727H27.3478C26.4598 70.8727 25.7391 71.5934 25.7391 72.4814C25.7391 73.3694 26.4598 74.0901 27.3478 74.0901H46.6522C47.5402 74.0901 48.2609 73.3694 48.2609 72.4814C48.2609 71.5934 47.5402 70.8727 46.6522 70.8727H38.6087V61.1385C51.1646 60.3052 61.1304 49.8519 61.1304 37.0901V30.6553C61.1304 29.7673 60.4097 29.0466 59.5217 29.0466Z" fill="#FFB400"/>
</g>
<defs>
<clipPath id="clip0_2_468">
<rect width="74" height="74" fill="white" transform="translate(0 0.0900879)"/>
</clipPath>
</defs>
</svg>
