<svg width="68" height="68" viewBox="0 0 68 68" fill="none" xmlns="http://www.w3.org/2000/svg">
<path d="M31.6094 49.4287C31.0591 49.4287 30.6133 49.8747 30.6133 50.4248C30.6133 50.9749 31.0591 51.4209 31.6094 51.4209H36.3906C36.9409 51.4209 37.3867 50.9749 37.3867 50.4248C37.3867 49.8747 36.9409 49.4287 36.3906 49.4287H31.6094Z" fill="#FFB400"/>
<path d="M11.9531 33.9619H18.5374C18.9396 35.0086 19.9528 35.7549 21.1394 35.7549C22.3259 35.7549 23.3391 35.0086 23.7413 33.9619H25.0573C25.6076 33.9619 26.0534 33.5159 26.0534 32.9658C26.0534 32.4157 25.6076 31.9697 25.0573 31.9697H23.7413C23.3391 30.923 22.3259 30.1768 21.1394 30.1768C19.9528 30.1768 18.9396 30.923 18.5374 31.9697H11.9531C11.4029 31.9697 10.957 32.4157 10.957 32.9658C10.957 33.5159 11.4029 33.9619 11.9531 33.9619ZM21.1394 32.1689C21.5788 32.1689 21.9362 32.5263 21.9362 32.9658C21.9362 33.4053 21.5788 33.7627 21.1394 33.7627C20.6999 33.7627 20.3425 33.4053 20.3425 32.9658C20.3425 32.5263 20.6999 32.1689 21.1394 32.1689Z" fill="#FFB400"/>
<path d="M11.9531 28.251H13.2249C13.6271 29.2977 14.6403 30.0439 15.8269 30.0439C17.0134 30.0439 18.0266 29.2977 18.4288 28.251H25.0573C25.6076 28.251 26.0534 27.805 26.0534 27.2549C26.0534 26.7048 25.6076 26.2588 25.0573 26.2588H18.4288C18.0266 25.2121 17.0134 24.4658 15.8269 24.4658C14.6403 24.4658 13.6271 25.2121 13.2249 26.2588H11.9531C11.4029 26.2588 10.957 26.7048 10.957 27.2549C10.957 27.805 11.4029 28.251 11.9531 28.251ZM15.8269 26.458C16.2663 26.458 16.6237 26.8154 16.6237 27.2549C16.6237 27.6944 16.2663 28.0518 15.8269 28.0518C15.3874 28.0518 15.03 27.6944 15.03 27.2549C15.03 26.8154 15.3874 26.458 15.8269 26.458Z" fill="#FFB400"/>
<path d="M25.2566 19.0869C25.8067 19.0869 26.2527 18.6409 26.2527 18.0908C26.2527 17.5407 25.8067 17.0947 25.2566 17.0947C24.7064 17.0947 24.2605 17.5407 24.2605 18.0908C24.2605 18.6409 24.7064 19.0869 25.2566 19.0869Z" fill="#FFB400"/>
<path d="M22.5117 19.0869C23.0618 19.0869 23.5078 18.6409 23.5078 18.0908C23.5078 17.5407 23.0618 17.0947 22.5117 17.0947C21.9616 17.0947 21.5156 17.5407 21.5156 18.0908C21.5156 18.6409 21.9616 19.0869 22.5117 19.0869Z" fill="#FFB400"/>
<path d="M19.7669 19.0869C20.317 19.0869 20.763 18.6409 20.763 18.0908C20.763 17.5407 20.317 17.0947 19.7669 17.0947C19.2167 17.0947 18.7708 17.5407 18.7708 18.0908C18.7708 18.6409 19.2167 19.0869 19.7669 19.0869Z" fill="#FFB400"/>
<path d="M65.0117 6.79488H64.6386L64.9169 6.51664C65.7503 5.68324 65.7503 4.3271 64.9169 3.4937L62.7364 1.31318C61.903 0.479916 60.547 0.479916 59.7134 1.31318L54.2321 6.79475H2.98828C1.34061 6.79475 0 8.13523 0 9.78303V51.1493C0 53.1633 1.63838 54.8017 3.65234 54.8017H27.2458V61.848H22.4453C21.1638 61.848 20.1211 62.8908 20.1211 64.1723V65.1676C20.1211 66.4491 21.1638 67.4918 22.4453 67.4918H45.5547C46.8362 67.4918 47.8789 66.4491 47.8789 65.1676V64.1723C47.8789 62.8908 46.8362 61.848 45.5547 61.848H40.7542V54.8017H51.3984C51.9487 54.8017 52.3945 54.3557 52.3945 53.8056C52.3945 53.2555 51.9487 52.8095 51.3984 52.8095H3.65234C2.73687 52.8095 1.99219 52.0648 1.99219 51.1493V48.2009H66.0078V51.1493C66.0078 52.0648 65.2631 52.8095 64.3477 52.8095H56.0469C55.4966 52.8095 55.0508 53.2555 55.0508 53.8056C55.0508 54.3557 55.4966 54.8017 56.0469 54.8017H64.3477C66.3616 54.8017 68 53.1633 68 51.1493V9.78316C68 8.13549 66.6594 6.79488 65.0117 6.79488ZM45.5547 63.8404C45.7378 63.8404 45.8867 63.9894 45.8867 64.1724V65.1677C45.8867 65.3507 45.7378 65.4997 45.5547 65.4997H22.4453C22.2622 65.4997 22.1133 65.3507 22.1133 65.1677V64.1724C22.1133 63.9894 22.2622 63.8404 22.4453 63.8404H45.5547ZM29.238 54.8019H38.7621V61.8483H29.238V54.8019ZM61.1222 2.72206C61.179 2.66535 61.2712 2.66548 61.3278 2.72206L63.5081 4.90244C63.5649 4.95915 63.5649 5.05146 63.5081 5.10803L61.4276 7.18854L59.0417 4.80256L61.1222 2.72206ZM57.6329 6.21131L60.0188 8.59728L59.324 9.29202L56.9382 6.90605L57.6329 6.21131ZM55.5294 8.31479L57.9154 10.7008L46.1282 22.488L43.7422 20.102L55.5294 8.31479ZM54.0547 17.4216C55.4095 17.4216 56.5117 18.5238 56.5117 19.8786C56.5117 21.2335 55.4095 22.3357 54.0547 22.3357C52.6999 22.3357 51.5977 21.2335 51.5977 19.8786C51.5977 19.8628 51.5998 19.8476 51.6 19.8318L54.0082 17.424C54.0237 17.4237 54.039 17.4216 54.0547 17.4216ZM44.3984 23.5757L41.4504 24.7798L42.6545 21.8318L44.3984 23.5757ZM66.0078 46.209H1.99219V9.78316C1.99219 9.23398 2.43897 8.78707 2.98828 8.78707H52.2401L50.7212 10.3059H16.8672C16.3169 10.3059 15.8711 10.7519 15.8711 11.302C15.8711 11.8521 16.3169 12.2981 16.8672 12.2981H48.7292L41.7033 19.3244C41.5047 19.5247 41.3494 19.7584 41.2425 20.0201L39.0175 25.4675C38.8134 25.9678 38.9284 26.538 39.3105 26.92C39.567 27.1764 39.908 27.3124 40.2559 27.3124C40.4264 27.3124 40.5984 27.2797 40.7629 27.2127L46.2103 24.9878C46.4645 24.8839 46.6918 24.7336 46.8884 24.543L49.9186 21.5132C50.5714 23.1599 52.1784 24.328 54.0548 24.328C56.5081 24.328 58.504 22.3321 58.504 19.8788C58.504 18.0027 57.3362 16.3958 55.6897 15.7429L59.1348 12.2982H62.4968V42.6981H61.9688L58.359 36.4457C58.0841 35.9691 57.4745 35.8059 56.9983 36.0811C56.5219 36.3562 56.3587 36.9654 56.6338 37.4418L59.6685 42.6981H45.7538L44.2614 40.1132L51.2187 28.0627L54.3094 33.4161C54.5846 33.8925 55.1938 34.0558 55.6701 33.7807C56.1465 33.5056 56.3097 32.8964 56.0347 32.42L52.7373 26.7089C52.4203 26.1599 51.8527 25.8321 51.2186 25.8321C50.5846 25.8321 50.0168 26.1599 49.6998 26.7089L43.1109 38.1211L34.6569 23.4784C34.3399 22.9293 33.7722 22.6016 33.138 22.6016C32.5041 22.6016 31.9364 22.9293 31.6193 23.4784L29.3733 27.3686V16.6914C29.3733 15.4099 28.3306 14.3672 27.0491 14.3672H9.96094C8.67943 14.3672 7.63672 15.4099 7.63672 16.6914V38.4727C7.63672 39.3881 8.3814 40.1328 9.29688 40.1328H22.0042L20.5231 42.6982H5.50335V12.2981H12.2188C12.769 12.2981 13.2148 11.8521 13.2148 11.302C13.2148 10.7519 12.769 10.3059 12.2188 10.3059H5.17132C4.25584 10.3059 3.51116 11.0506 3.51116 11.9661V43.03C3.51116 43.9455 4.25584 44.6901 5.17132 44.6901H62.8288C63.7443 44.6901 64.489 43.9455 64.489 43.03V11.9661C64.489 11.0506 63.7443 10.3059 62.8288 10.3059H61.1272L62.6463 8.78707H65.0117C65.561 8.78707 66.0078 9.23398 66.0078 9.78316V46.209ZM27.3816 22.2079V38.1404H9.62891V22.2079H27.3816ZM9.62891 20.2157V16.6911C9.62891 16.5081 9.77779 16.3591 9.96094 16.3591H27.0495C27.2327 16.3591 27.3816 16.5081 27.3816 16.6911V20.2157H9.62891ZM24.3047 40.1325H27.7136C28.6291 40.1325 29.3737 39.3879 29.3737 38.4724V36.3624C29.6229 36.4819 29.9003 36.5466 30.1909 36.5466C30.8709 36.5466 31.4797 36.1949 31.8196 35.6062L33.5148 32.6701C33.5661 32.5814 33.6445 32.5626 33.7009 32.5626C33.7576 32.5626 33.836 32.5814 33.8871 32.6701L34.9322 34.4802C35.2722 35.0692 35.8812 35.4208 36.5613 35.4208C37.2413 35.4208 37.8502 35.0692 38.1901 34.4803L38.4496 34.0309L43.4535 42.6978H22.8236L24.3047 40.1325ZM29.3737 33.028V31.3527L33.1386 24.832L37.2993 32.0387L36.5612 33.3171L35.6123 31.6739C35.2134 30.9828 34.4988 30.5703 33.7008 30.5703C32.9028 30.5703 32.1883 30.9828 31.7893 31.6739L30.1905 34.443L29.3737 33.028Z" fill="#FFB400"/>
</svg>
