<svg width="74" height="75" viewBox="0 0 74 75" fill="none" xmlns="http://www.w3.org/2000/svg">
<path d="M32.375 38.2463H41.625V40.5588H32.375V38.2463Z" fill="#FFB400"/>
<path d="M35.8438 34.7776H38.1562V44.0276H35.8438V34.7776Z" fill="#FFB400"/>
<path d="M65.9062 38.2463H68.2188V40.5588H65.9062V38.2463Z" fill="#FFB400"/>
<path d="M56.6562 38.2463H58.9688V40.5588H56.6562V38.2463Z" fill="#FFB400"/>
<path d="M61.2812 33.6213H63.5938V35.9338H61.2812V33.6213Z" fill="#FFB400"/>
<path d="M61.2812 42.8713H63.5938V45.1838H61.2812V42.8713Z" fill="#FFB400"/>
<path d="M10.6597 20.469L5.45662 13.9651L10.6597 7.46118L12.4653 8.90649L8.41838 13.9651L12.4653 19.0237L10.6597 20.469Z" fill="#FFB400"/>
<path d="M28.6528 20.469L26.8472 19.0237L30.8953 13.9651L26.8472 8.90649L28.6528 7.46118L33.8548 13.9651L28.6528 20.469Z" fill="#FFB400"/>
<path d="M14.7377 17.8273L22.8337 8.57959L24.5737 10.1022L16.4777 19.3506L14.7377 17.8273Z" fill="#FFB400"/>
<path d="M9.25 50.9651H4.625V46.3401H6.9375V48.6526H9.25V50.9651Z" fill="#FFB400"/>
<path d="M70.5312 2.40259H3.46875C1.55315 2.40259 0 3.95573 0 5.87134V52.1213C0 54.0369 1.55315 55.5901 3.46875 55.5901H27.75V61.3713C27.75 63.2869 26.1969 64.8401 24.2812 64.8401H18.5V71.7776H55.5V64.8401H49.7188C47.8031 64.8401 46.25 63.2869 46.25 61.3713V55.5901H70.5312C72.4469 55.5901 74 54.0369 74 52.1213V5.87134C74 3.95573 72.4469 2.40259 70.5312 2.40259ZM53.1875 67.1526V69.4651H20.8125V67.1526H53.1875ZM37 62.5761C38.9156 62.5761 40.4688 61.023 40.4688 59.1074V55.5901H43.9375V61.3713C43.942 62.6264 44.3587 63.8453 45.1237 64.8401H28.8763C29.6413 63.8453 30.058 62.6264 30.0625 61.3713V55.5901H33.5312V59.1074C33.5312 61.023 35.0844 62.5761 37 62.5761ZM35.8438 59.1074V55.5901H38.1562V59.1074C38.1562 59.7459 37.6385 60.2636 37 60.2636C36.3615 60.2636 35.8438 59.7459 35.8438 59.1074ZM71.6875 52.1213C71.6875 52.7599 71.1698 53.2776 70.5312 53.2776H3.46875C2.83022 53.2776 2.3125 52.7599 2.3125 52.1213V41.7151H25.669C26.6265 46.422 30.3956 50.0454 35.1369 50.816C39.8776 51.5872 44.6009 49.3448 47.0003 45.1838H52.4349C54.3725 48.5527 57.8774 50.7189 61.7572 50.9459C65.6369 51.1729 69.3699 49.43 71.6875 46.3102V52.1213ZM62.4375 48.6526C58.923 48.6611 55.7112 46.6658 54.1608 43.5121L53.8407 42.8713H45.5968L45.2767 43.5121C43.2487 47.6008 38.5419 49.5999 34.1918 48.2196C29.8412 46.8386 27.1482 42.4919 27.8494 37.9816C28.55 33.4717 32.436 30.1475 37 30.1526H62.4375C67.5463 30.1526 71.6875 34.2937 71.6875 39.4026C71.6875 44.5114 67.5463 48.6526 62.4375 48.6526ZM71.6875 32.495C69.5128 29.5694 66.083 27.8435 62.4375 27.8401H37C30.6169 27.8469 25.4443 33.0195 25.4375 39.4026H2.3125V5.87134C2.3125 5.2328 2.83022 4.71509 3.46875 4.71509H70.5312C71.1698 4.71509 71.6875 5.2328 71.6875 5.87134V32.495Z" fill="#FFB400"/>
<path d="M47.4062 38.2463H52.0312V40.5588H47.4062V38.2463Z" fill="#FFB400"/>
<path d="M34.6875 9.34009H43.9375V11.6526H34.6875V9.34009Z" fill="#FFB400"/>
<path d="M48.5625 9.34009H67.0625V11.6526H48.5625V9.34009Z" fill="#FFB400"/>
<path d="M50.875 13.9651H67.0625V16.2776H50.875V13.9651Z" fill="#FFB400"/>
<path d="M37 13.9651H46.25V16.2776H37V13.9651Z" fill="#FFB400"/>
<path d="M34.6875 18.5901H57.8125V20.9026H34.6875V18.5901Z" fill="#FFB400"/>
<path d="M62.4375 18.5901H67.0625V20.9026H62.4375V18.5901Z" fill="#FFB400"/>
<path d="M6.9375 23.2151H18.5V25.5276H6.9375V23.2151Z" fill="#FFB400"/>
<path d="M23.125 23.2151H45.0938V25.5276H23.125V23.2151Z" fill="#FFB400"/>
<path d="M48.5625 23.2151H67.0625V25.5276H48.5625V23.2151Z" fill="#FFB400"/>
<path d="M6.9375 27.8401H25.4375V30.1526H6.9375V27.8401Z" fill="#FFB400"/>
<path d="M6.9375 32.4651H16.1875V34.7776H6.9375V32.4651Z" fill="#FFB400"/>
<path d="M18.5 32.4651H23.125V34.7776H18.5V32.4651Z" fill="#FFB400"/>
</svg>
