<svg width="72" height="79" viewBox="0 0 72 79" fill="none" xmlns="http://www.w3.org/2000/svg">
<path d="M52.3549 73.0578H71.7127L66.7433 58.1485C65.4438 54.2498 62.1275 51.3587 58.0878 50.6014L44.8065 48.1104V45.037C47.9881 42.741 50.2338 39.2436 50.8854 35.2102C53.8545 34.7082 56.129 32.1355 56.129 29.0256V20.2191C56.129 9.12048 47.0987 0.0900879 36 0.0900879C24.9014 0.0900879 15.871 9.12048 15.871 20.2191V29.0256C15.871 32.1317 18.1342 34.7196 21.0982 35.2266C21.7524 39.2599 24.0107 42.7611 27.1936 45.0558V48.1117L13.9109 50.6026C9.87252 51.36 6.555 54.251 5.25542 58.1498L0.287323 73.0578H19.6452V70.5417H16.2245L18.3494 62.0397L15.9087 61.4308L13.6304 70.5417H3.77719L7.64323 58.9449C8.65345 55.9129 11.2337 53.6635 14.3751 53.0735L22.389 51.5713L24.4384 60.7904C23.0998 61.3717 22.1613 62.7027 22.1613 64.2514V74.3159C22.1613 76.3967 23.8547 78.0901 25.9355 78.0901H46.0645C48.1454 78.0901 49.8387 76.3967 49.8387 74.3159V64.2514C49.8387 62.7027 48.9002 61.3717 47.5629 60.7904L49.6123 51.5713L57.6261 53.0735C60.7675 53.6635 63.3466 55.9129 64.358 58.9449L68.2228 70.5417H58.3697L56.0913 61.4308L53.6507 62.0397L55.7755 70.5417H52.3549V73.0578ZM47.1377 51.1071L45.4003 58.9247L44.5309 55.4449H39.037L43.9686 50.5133L47.1377 51.1071ZM43.1949 60.4772H28.8051L29.4342 57.9611H42.5658L43.1949 60.4772ZM36 54.9241L29.7097 48.6338V46.5127C31.627 47.3958 33.7544 47.8965 36 47.8965C38.2469 47.8965 40.373 47.3895 42.2903 46.5064V48.6338L36 54.9241ZM51.0968 32.5683V25.4841C52.5574 26.005 53.6129 27.3888 53.6129 29.0268C53.6129 30.6648 52.5574 32.0474 51.0968 32.5683ZM20.9032 32.5846C19.4388 32.0651 18.3871 30.6661 18.3871 29.0256C18.3871 27.3851 19.4388 25.9861 20.9032 25.4665V32.5846ZM18.3871 24.026V20.2191C18.3871 10.5069 26.2877 2.60622 36 2.60622C45.7123 2.60622 53.6129 10.5069 53.6129 20.2191V24.026C52.8681 23.4624 52.0076 23.046 51.0565 22.8585C50.859 21.3728 49.5984 20.2191 48.0598 20.2191C47.2609 20.2191 46.4784 20.5437 45.8494 21.1727C43.7245 23.2976 41.0323 24.6525 38.1161 25.0929L38.1966 24.9318C38.4054 24.5116 38.5161 24.0424 38.5161 23.5731V23.2561C38.5161 21.5816 37.1537 20.2191 35.4792 20.2191C34.6803 20.2191 33.8978 20.5437 33.3316 21.1086C30.6809 23.7581 27.1646 25.2275 23.4194 25.2514V22.7352H22.1613C20.7397 22.7352 19.4414 23.2272 18.3871 24.026ZM23.4194 32.7998V27.7675C27.8364 27.7436 31.9855 26.0125 35.1093 22.8887C35.4125 22.5843 36 22.8321 36 23.2561V23.5731C36 23.6536 35.9811 23.7342 35.9446 23.8071L33.9645 27.7675H36C40.3932 27.7675 44.5221 26.0578 47.6899 22.8887C47.9944 22.5843 48.5807 22.8321 48.5807 23.2561V32.7998C48.5807 39.7367 42.937 45.3804 36 45.3804C29.063 45.3804 23.4194 39.7367 23.4194 32.7998ZM28.0314 50.5133L32.963 55.4449H27.4691L26.5997 58.9247L24.8624 51.1071L28.0314 50.5133ZM25.9355 75.574C25.2423 75.574 24.6774 75.0103 24.6774 74.3159V64.2514C24.6774 63.5569 25.2423 62.9933 25.9355 62.9933H29.8493C28.2126 64.5936 27.1936 66.8203 27.1936 69.2836C27.1936 71.7469 28.2126 73.9737 29.8493 75.574H25.9355ZM36 75.574C32.5315 75.574 29.7097 72.7521 29.7097 69.2836C29.7097 65.8152 32.5315 62.9933 36 62.9933C39.4685 62.9933 42.2903 65.8152 42.2903 69.2836C42.2903 72.7521 39.4685 75.574 36 75.574ZM47.3226 74.3159C47.3226 75.0103 46.7577 75.574 46.0645 75.574H42.1507C43.7874 73.9737 44.8065 71.7469 44.8065 69.2836C44.8065 66.8203 43.7874 64.5936 42.1507 62.9933H46.0645C46.7577 62.9933 47.3226 63.5569 47.3226 64.2514V74.3159Z" fill="#FFB400"/>
</svg>
